<svg xmlns="http://www.w3.org/2000/svg" viewBox="0 0 1281.09 370.15">
    <defs>
        <style>.cls-1{fill:#fefefe;fill-rule:evenodd;}.cls-2{font-size:95.89px;fill:#fff;font-family:Roboto-Bold, Roboto;font-weight:700;}.cls-3{letter-spacing:-0.01em;}</style>
    </defs>
    <g id="Layer_2" data-name="Layer 2">
        <g id="Layer_1-2" data-name="Layer 1">
            <path id="P" class="cls-1" d="M1280.88,77.38a.84.84,0,0,1-.38-.84,59.84,59.84,0,0,0-.55-10.7,11.91,11.91,0,0,1-.56-3.91,23.93,23.93,0,0,0-.28-3.17q-1-3.82-2-7.64a1.3,1.3,0,0,1-.37-1.11c-.16-.81-.31-1.61-.47-2.42q-1.82-4.94-3.91-9.69A48.5,48.5,0,0,0,1249,14.81q-4.72-2-9.5-3.91-4.74-1.43-9.49-2.61c-2.72-.63-5.45-1.18-8.2-1.67a144.36,144.36,0,0,0-14.52-1.68l-6-.37A12.75,12.75,0,0,1,1198,4.2h-90.88V86q-.06,61.46.09,122.91,35.68.34,71.42,0V165.47h15.45q7-.09,14-.56a9.79,9.79,0,0,1,3-.37,179.38,179.38,0,0,0,21.23-3.91A105.47,105.47,0,0,0,1249,154.2a54.51,54.51,0,0,0,17.6-14.24,70.73,70.73,0,0,0,10.43-22.54q.84-4,1.86-8,.87-5.8,1.58-11.54,0-3.69.38-7.27a1.31,1.31,0,0,0,.18-.93Q1281.15,83.52,1280.88,77.38Zm-71.79,10.8a31.17,31.17,0,0,1-.66,3.73,27.76,27.76,0,0,1-2.23,7.45,14.18,14.18,0,0,1-6.15,6.79,33.42,33.42,0,0,1-11.36,3.08c-3.32.18-6.67.25-10,.18q-.09-24.52.18-49a70.37,70.37,0,0,1,10.06,0,28.3,28.3,0,0,1,13.59,3.63,16.38,16.38,0,0,1,5.78,10.33,9,9,0,0,1,.65,3A97.32,97.32,0,0,1,1209.09,88.18Z"/>
            <path id="G" class="cls-1" d="M988,135.49a57.67,57.67,0,0,0,3,7.63,14.69,14.69,0,0,0,2.7,3.54,17.34,17.34,0,0,0,10.8,5.87,48.43,48.43,0,0,0,17.14.46c.82.2,1.2-.11,1.12-.93V138.47l-8.85-.38q-.51-24.95-.47-49.91A17.22,17.22,0,0,0,1017,88h69.28a12.23,12.23,0,0,0,3,.18V202.9q-4.15.57-8.2,1.3-11,1.73-22,3.17a10.11,10.11,0,0,0-3,.37q-21.78,3-43.76,4a194.46,194.46,0,0,1-30.73-1.59,7.5,7.5,0,0,0-2.61-.37,95.4,95.4,0,0,1-26.44-7.54l-6.89-3.82q-4.35-3.13-8.38-6.7a77.41,77.41,0,0,1-16.67-27.38q-1.82-5.58-3.26-11.17c-.72-3.55-1.34-7.08-1.86-10.62q-.75-7.11-1.49-14.15c0-1.74,0-3.48-.19-5.22a46.71,46.71,0,0,0-.37-6V94.33q.6-7.5,1.12-15.08c.15-.6.27-1.22.37-1.87a20.36,20.36,0,0,0,.56-4.09,101.69,101.69,0,0,1,12-38.93,57.94,57.94,0,0,1,23.56-22.81,103,103,0,0,1,31.47-9.68A212.09,212.09,0,0,1,1012.34,0a396.15,396.15,0,0,1,60.15,6.89q7.68,1.76,15.27,3.63V64.16h-2q-23.68-2.41-47.49-3.35a201.82,201.82,0,0,0-31.1.09,31.91,31.91,0,0,0-15.64,5.4,15.87,15.87,0,0,0-3.63,6.43,50.68,50.68,0,0,0-1.49,7.63c-.2,3.54-.41,7.08-.65,10.62a90.25,90.25,0,0,0-.38,10.43,68.87,68.87,0,0,0,0,9.31q0,3.54.1,7.07a8.6,8.6,0,0,0,.28,1.87A88.26,88.26,0,0,0,988,135.49"/>
            <path id="K" class="cls-1" d="M731.32,4h70.39a.85.85,0,0,1,.75.19V76.64q5.91.09,11.73-.19a1.08,1.08,0,0,0,.37-.74q3-9.09,5.78-18.25,5.22-16.14,10.24-32.41,3.21-10.52,6.7-21a.92.92,0,0,1,.56-.09h67.6a14,14,0,0,1,2.24.09.76.76,0,0,1,.18.37Q901.43,23.76,895,43.12q-3.79,11-7.26,22.16a61.33,61.33,0,0,0-3,8.75q-2.35,6.52-4.28,13.22-2.85,7.92-5.22,16,4.11,13,8.76,25.88,5,15.16,10.05,30.17,2.31,6.39,4.47,12.85,3.54,10.35,7.08,20.67,2.7,8,5.4,16-35.76,0-71.51-.09c-1.2-2.67-2.25-5.37-3.17-8.1q-4-11.65-8.38-23.1a83.29,83.29,0,0,0-3-8.38,11.76,11.76,0,0,0-1.12-3.16q-2.67-8.11-5.77-16c-1-2.89-2-5.75-3.16-8.56a.83.83,0,0,0-.19-.66q-6.15-.14-12.29-.09v68a1.29,1.29,0,0,1-.93.19H731.32q-.18-16.8-.37-33.52V4.2Z"/>
            <path id="A" class="cls-1" d="M703,202.67c-.42-4.18-.66-8.36-.7-12.57a4.51,4.51,0,0,1-.35-1.39q-.31-41.19-.23-82.37a29.08,29.08,0,0,0-.24-3.73c-.36-3-.83-6-1.39-9.07A127.62,127.62,0,0,0,695,77q-1.59-3.06-3.38-6A49.83,49.83,0,0,0,677.5,55.84a60.44,60.44,0,0,0-15.36-7.91,98.14,98.14,0,0,0-20.24-4.19h-.24l-8.14-.23q-7,0-14,.23c-1.71,0-3.42.11-5.12.24a10.09,10.09,0,0,1-3.49.46,80.14,80.14,0,0,0-12.33,1.86q-6.21,1.35-12.33,3a116.3,116.3,0,0,0-18.39,7.33,1.2,1.2,0,0,0-.69,1.05q4.32,16.12,9.07,32.11a16.36,16.36,0,0,1,4.65-2.33,79,79,0,0,1,24.44-7.91,27,27,0,0,1,5.81-.93,13.87,13.87,0,0,1,4.19-.47,48.27,48.27,0,0,1,27,4.54,21,21,0,0,1,6.17,6.63,13.05,13.05,0,0,1,1.74,8.38,4.82,4.82,0,0,1,.24,2.09H647q-6.81.38-13.73.47a47,47,0,0,0-6.28.46,9.54,9.54,0,0,1-3.26.47,105.05,105.05,0,0,0-41.42,12.91Q553.71,132,555.57,165.9c.38,2,.69,4,.93,6a54.31,54.31,0,0,0,4.19,12.57,42.69,42.69,0,0,0,3.72,6.28c1.07,1.58,2.19,3.14,3.38,4.65a53.7,53.7,0,0,0,22.68,14.2c2.37.47,4.7,1,7,1.63a159.26,159.26,0,0,0,16.06.46,35.21,35.21,0,0,1,4.65-.46c2.59-.66,5.22-1.2,7.91-1.63a54.43,54.43,0,0,0,28.16-17.34.77.77,0,0,1,1-.11q1.2,8.09,2.9,16.05,22.82.34,45.61.23a1.41,1.41,0,0,0,.23-.81A25.84,25.84,0,0,1,703,202.67Zm-54.92-38.86a45.05,45.05,0,0,0-3.49,4.19c-.86.74-1.75,1.44-2.67,2.09A26.56,26.56,0,0,1,623.75,176a38.53,38.53,0,0,1-7.22-1.39,6,6,0,0,1-1.39-.82,15.79,15.79,0,0,1-8.61-10.23.54.54,0,0,1-.35-.24c-.26-1.32-.53-2.64-.81-4a10.89,10.89,0,0,1-.24-2.33,14.69,14.69,0,0,1,.47-3.95,16.84,16.84,0,0,1,1.86-5.59,25.28,25.28,0,0,1,2.68-4.42,30.72,30.72,0,0,1,15-8.38,35.54,35.54,0,0,1,10.71-2.09,9.21,9.21,0,0,0,3.25-.47h.47c2.13-.22,4.3-.38,6.52-.46h6q.11,9-.24,17.92A22.54,22.54,0,0,1,648.06,163.81Z"/>
            <path id="T" class="cls-1" d="M514.39,0h.93V46.3h36.53a.21.21,0,0,1,.23.24q.12,18.63-.23,37.23H515.32a.64.64,0,0,0,.23.69q-.12,31.56.23,63.06a30,30,0,0,0,4.77,17,11.86,11.86,0,0,0,5.24,4,25.51,25.51,0,0,0,13.26,1.75c2.55-.27,5.11-.47,7.68-.58a14,14,0,0,0,3.49-.7h.23v.93q.31,19,.24,37.93a50.31,50.31,0,0,0-6.52,1.86,149.87,149.87,0,0,1-36.76,1.74A58.53,58.53,0,0,1,483,201.15a34.19,34.19,0,0,1-4.18-4.07,53.17,53.17,0,0,1-10-19.54,153.63,153.63,0,0,1-3.26-24.2V94c-.06-3.42,0-6.83.24-10.23q-10.65-.36-21.41-.24V46.3h21.41a21.55,21.55,0,0,0-.24-4.42v-.7q-.11-15,.24-30,16.25-4,32.57-7.68,5.32-1,10.47-2.33Q511.57.5,514.39,0Z"/>
            <path id="E" class="cls-1" d="M437.83,98.42a2.57,2.57,0,0,1-.46-1.62,70.33,70.33,0,0,0-5.59-16.06q-2.52-4.45-5.23-8.84a68.24,68.24,0,0,0-20.13-19.31,72.81,72.81,0,0,0-8.61-4.19c-1.24-.52-2.48-1-3.72-1.4a80.71,80.71,0,0,0-21.64-3.72,102.22,102.22,0,0,0-26.06,2.21q-3,.81-6.05,1.74a63.55,63.55,0,0,0-20.48,10.24A19.19,19.19,0,0,1,316.61,60Q312.2,64,308,68.18L303.34,74a89.16,89.16,0,0,0-16.28,41,12.21,12.21,0,0,1-.47,3.49,11.37,11.37,0,0,0-.35,2.32c-.12,4.34-.15,8.69-.12,13v1.4a33.09,33.09,0,0,1,.47,5.58,69.88,69.88,0,0,0,1.05,7.91,104.76,104.76,0,0,0,6.16,20.25q2.08,4.15,4.54,8.14a73.18,73.18,0,0,0,19.43,20.25q5.4,3.33,11.17,6.16a106.41,106.41,0,0,0,35.13,8.26q14.56.25,29.09-.7a209.22,209.22,0,0,0,32.57-7,8.76,8.76,0,0,1,3-.93,20.42,20.42,0,0,1,2.56-1.16,7.8,7.8,0,0,0,.23-1.28,12,12,0,0,1-.7-4.07q-2.09-10.11-4.07-20.25-.82-4.63-1.28-9.3a151,151,0,0,1-22.34,5.12c-2.05.41-4.14.75-6.28,1-3.26.18-6.52.38-9.77.58q-3.09.24-6.28.24a64.76,64.76,0,0,1-8.85-.47,16.05,16.05,0,0,1-4.18-.46l-8.15-2a32.42,32.42,0,0,1-6.75-2.68,48.14,48.14,0,0,1-7.67-4.53,19.63,19.63,0,0,1-4-4.08,22,22,0,0,1-5.12-8.61,57.88,57.88,0,0,1-1.86-7,.64.64,0,0,1-.23-.69H439a.56.56,0,0,0,.35-.24q.81-7.54,1.28-15.12A113.34,113.34,0,0,0,437.83,98.42Zm-44.44,10.71H334.06a3,3,0,0,1,.23-1.63,40.38,40.38,0,0,1,12.33-24.08,32,32,0,0,1,7-4.08,17.37,17.37,0,0,1,7.45-2.09,14.94,14.94,0,0,1,4.3-.46A27,27,0,0,1,382,82.14,29.36,29.36,0,0,1,391.88,98a44.74,44.74,0,0,1,1.05,5.35A30.61,30.61,0,0,1,393.39,109.13Z"/>
            <path id="M" class="cls-1" d="M130,44.68q2.92.75,5.82,1.62a45,45,0,0,1,24.32,21.18,13.18,13.18,0,0,1,1.28,3,.71.71,0,0,0,.69.24,9.33,9.33,0,0,1,.82-1.87,77,77,0,0,1,20.13-18.26,83.24,83.24,0,0,1,9.3-4.31,14.14,14.14,0,0,1,3.26-.93,95.19,95.19,0,0,1,14-2.09,70.49,70.49,0,0,1,20.25,2.09A62.32,62.32,0,0,1,241,50.26,52,52,0,0,1,259.25,70c1.22,2.7,2.43,5.42,3.61,8.14A111.56,111.56,0,0,1,266.11,91a10.65,10.65,0,0,0,.7,3.26,20,20,0,0,0,.23,2.32,9.5,9.5,0,0,0,.47,3.26,39.76,39.76,0,0,1,.47,7V208.25h-49.1c-.16-.46-.31-.93-.47-1.39v-72.6a155.31,155.31,0,0,0,0-17v-.93a96.62,96.62,0,0,0-1-11.63c-.44-1.6-.94-3.15-1.52-4.66a10.89,10.89,0,0,0-1.16-2.79,23,23,0,0,0-3.95-6.51,18.78,18.78,0,0,0-11.87-6.4,65.24,65.24,0,0,0-7.91,0,10.48,10.48,0,0,0-3.49,1,20.68,20.68,0,0,0-9.08,6.29A15.14,15.14,0,0,0,174.44,97a16.1,16.1,0,0,0-2.1,4,30.82,30.82,0,0,0-1.16,4.66,21.44,21.44,0,0,0-.7,6.75v96.09H120.92c-.11-1.78-.19-3.56-.23-5.35q.06-45.6-.12-91.21A39.26,39.26,0,0,0,115.45,94q-6.3-10.19-18.38-9.77A21.09,21.09,0,0,0,82.76,89a33.09,33.09,0,0,0-10.35,15.94,28.62,28.62,0,0,0-.59,4.42,22.44,22.44,0,0,0-.23,4.42v93.08a2.88,2.88,0,0,1-.23,1.51q-18.15.16-36.3.11H21.8c.07-3.84,0-7.64-.24-11.4q.11-57.93-.23-115.87.11-6.3-.23-12.57,0-9-.7-17.92V46.54H63.21a.49.49,0,0,1,.35.23q.82,11,2.21,21.87a.71.71,0,0,0,.7-.23,58.2,58.2,0,0,1,25.6-20.94,49.75,49.75,0,0,1,6.28-2.1,10.69,10.69,0,0,0,2.09-.46A74.43,74.43,0,0,1,130,44.68Z"/>
        </g>
    </g>
</svg>